<?xml version="1.0" encoding="utf-8"?>
<!-- Generator: Adobe Illustrator 24.3.0, SVG Export Plug-In . SVG Version: 6.00 Build 0)  -->
<svg version="1.0" id="katman_1" xmlns="http://www.w3.org/2000/svg" xmlns:xlink="http://www.w3.org/1999/xlink" x="0px" y="0px"
	 viewBox="0 0 841.89 595.28" style="enable-background:new 0 0 841.89 595.28;" xml:space="preserve">
<style type="text/css">
	.st0{fill:#010202;}
	.st1{fill:#71C5E8;}
</style>
<polygon class="st0" points="159.43,386.81 86.44,284.97 59.11,284.97 59.11,436.54 88.3,436.54 88.3,334.62 161.29,436.54 
	188.63,436.54 188.63,284.97 159.43,284.97 "/>
<polygon class="st0" points="357.8,284.97 322.39,284.97 283.95,347.6 244.42,284.97 207.15,284.97 266.16,375.06 266.16,436.54 
	297.85,436.54 297.85,375.46 "/>
<path class="st0" d="M440.81,347.81l-17.73-4.05c-20.8-4.66-25.21-8.4-25.21-17.43c0-8.72,9.01-16.81,26.13-16.81
	c15.16-0.22,29.89,5.09,41.41,14.95l18.37-24.29c-17.12-14-38.92-18.98-58.53-18.98c-35.49,0-60.39,20.86-60.39,48.56
	c0,21.78,14.65,35.79,44.52,41.7l17.45,3.43c20.23,4.05,27.68,11.5,27.68,20.23c0,12.14-10.26,17.75-27.38,18.06
	c-16.51,0.31-32.38-5.6-46.7-20.23l-18.98,23.01c14.63,16.81,40.47,24.29,64.74,24.29c37.04,0,60.08-18.06,60.08-47.32
	C486.26,367.75,470.39,354.68,440.81,347.81z"/>
<path class="st0" d="M537.55,374.12C542.46,396.93,560,412,583.08,412c16.78,0,30.14-7.76,39.76-21.09l22.05,18.65
	c-14.37,19.69-37.44,31.14-61.81,30.67c-48.14,0-79.2-34.51-79.2-79.52s30.81-79.52,74.92-79.52c33.03,0,78.22,23.01,70.74,92.89
	L537.55,374.12z M619.58,349.58c-3.37-31.04-23.45-40.39-37.1-40.39c-23.22,0-40.03,14.59-45.42,40.39H619.58z"/>
<polygon class="st1" points="633.54,199.52 737.05,199.52 737.05,303.03 782.79,303.03 782.79,153.8 633.54,153.8 "/>
</svg>
